<?xml version="1.0" encoding="UTF-8" standalone="no"?>
<svg
   xmlns:dc="http://purl.org/dc/elements/1.1/"
   xmlns:cc="http://creativecommons.org/ns#"
   xmlns:rdf="http://www.w3.org/1999/02/22-rdf-syntax-ns#"
   xmlns:svg="http://www.w3.org/2000/svg"
   xmlns="http://www.w3.org/2000/svg"
   xmlns:sodipodi="http://sodipodi.sourceforge.net/DTD/sodipodi-0.dtd"
   xmlns:inkscape="http://www.inkscape.org/namespaces/inkscape"
   inkscape:output_extension="org.inkscape.output.svg.inkscape"
   sodipodi:docname="accolade.svg"
   inkscape:version="1.0 (4035a4f, 2020-05-01)"
   sodipodi:version="0.32"
   id="svg2"
   height="100"
   width="10"
   version="1.0">
  <metadata
     id="metadata20">
    <rdf:RDF>
      <cc:Work
         rdf:about="">
        <dc:format>image/svg+xml</dc:format>
        <dc:type
           rdf:resource="http://purl.org/dc/dcmitype/StillImage" />
        <dc:title></dc:title>
      </cc:Work>
    </rdf:RDF>
  </metadata>
  <sodipodi:namedview
     inkscape:document-rotation="0"
     inkscape:window-maximized="0"
     showgrid="false"
     inkscape:current-layer="svg2"
     inkscape:window-y="45"
     inkscape:window-x="396"
     inkscape:cy="64.127313"
     inkscape:cx="91.861317"
     inkscape:zoom="3.1780822"
     height="127px"
     width="45px"
     id="base"
     pagecolor="#ffffff"
     bordercolor="#666666"
     borderopacity="1.0"
     objecttolerance="10.0"
     gridtolerance="10.0"
     guidetolerance="10.0"
     inkscape:pageopacity="0.0"
     inkscape:pageshadow="2"
     inkscape:window-width="1290"
     inkscape:window-height="943" />
  <defs
     id="defs19" />
  <path
     d="M 8.331482,1.5932917 C 6.8114833,3.0482429 4.633894,6.4523409 3.7627317,8.2291704 2.4563175,11.956771 2.0208503,16.490692 2.4563175,20.866924 c 0.2133691,1.453326 0.6490517,4.691608 1.3064142,7.282884 1.0845315,6.159564 1.3066422,8.750841 1.3066422,11.342116 -0.2221107,4.210418 -1.7421094,7.606388 -4.14158125,9.874161 -0.43569521,0.323503 -0.6490517,0.647006 -0.6490517,0.812822 0,0.165815 0.21335649,0.489318 0.6490517,0.812821 2.39947185,2.267774 3.91947055,5.663747 4.14158125,9.716474 0,2.748961 -0.2221107,5.340243 -1.3066422,11.33399 -0.6573625,2.757094 -1.0930451,5.995377 -1.3064142,7.291011 -0.4354672,4.533921 0,9.067849 1.3064142,12.629624 1.0845315,2.914774 5.0042174,7.938018 6.0972751,7.938018 0.4354672,0 0.8709472,-0.323504 0.8709472,-0.648627 0,-0.164193 -0.43548,-0.647008 -0.8709472,-1.136332 -2.6130564,-2.748962 -3.7061141,-5.504424 -4.1415812,-9.714834 0,-2.591285 0.2218953,-5.023252 1.3064141,-11.176305 0.4354799,-2.425461 0.8711624,-5.340243 1.0930577,-6.478196 0.8711624,-7.772198 -0.870947,-14.414585 -5.2261128,-19.272007 -0.6575778,-0.648631 -1.093045,-1.295637 -1.093045,-1.295637 0,0 0.4354672,-0.647006 1.093045,-1.295638 C 7.2469504,44.025845 8.9890598,37.383465 8.1178974,29.445447 7.8960021,28.473312 7.4603196,25.558532 7.0248397,22.968882 5.9403209,16.98001 5.7184256,14.548047 5.7184256,11.956771 6.1538927,7.7463533 7.2469504,4.9908874 9.8600068,2.2419238 10.730954,1.2697886 10.953064,0.94628548 10.517585,0.62278234 9.8600068,0.29765434 9.4245396,0.45696722 8.331482,1.5932917 Z"
     style="fill:#000000;fill-rule:evenodd;stroke:#000000;stroke-width:0pt;stroke-linecap:butt;stroke-linejoin:round;stroke-miterlimit:10"
     id="path126-6"
     inkscape:connector-curvature="0" />
</svg>
