<?xml version="1.0" encoding="UTF-8" standalone="no"?>
<svg
   xmlns:dc="http://purl.org/dc/elements/1.1/"
   xmlns:cc="http://creativecommons.org/ns#"
   xmlns:rdf="http://www.w3.org/1999/02/22-rdf-syntax-ns#"
   xmlns:svg="http://www.w3.org/2000/svg"
   xmlns="http://www.w3.org/2000/svg"
   xmlns:sodipodi="http://sodipodi.sourceforge.net/DTD/sodipodi-0.dtd"
   xmlns:inkscape="http://www.inkscape.org/namespaces/inkscape"
   width="268"
   height="150"
   viewBox="0 0 268 150"
   version="1.1"
   id="svg67"
   inkscape:version="1.0 (4035a4f, 2020-05-01)"
   sodipodi:docname="double-whole-note.svg">
  <defs
     id="defs61" />
  <sodipodi:namedview
     showguides="false"
     id="base"
     pagecolor="#ffffff"
     bordercolor="#666666"
     borderopacity="1.0"
     inkscape:pageopacity="0.0"
     inkscape:pageshadow="2"
     inkscape:zoom="3.959798"
     inkscape:cx="123.81448"
     inkscape:cy="86.599515"
     inkscape:document-units="mm"
     inkscape:current-layer="layer1"
     inkscape:document-rotation="0"
     showgrid="false"
     inkscape:window-width="1920"
     inkscape:window-height="1035"
     inkscape:window-x="0"
     inkscape:window-y="23"
     inkscape:window-maximized="1" />
  <metadata
     id="metadata64">
    <rdf:RDF>
      <cc:Work
         rdf:about="">
        <dc:format>image/svg+xml</dc:format>
        <dc:type
           rdf:resource="http://purl.org/dc/dcmitype/StillImage" />
        <dc:title />
      </cc:Work>
    </rdf:RDF>
  </metadata>
  <g
     inkscape:label="图层 1"
     inkscape:groupmode="layer"
     id="layer1">
    <path
       id="path71"
       style="fill:#000000;fill-opacity:0.995951;fill-rule:evenodd;stroke:#000000;stroke-width:0.199812"
       d="M 169.0267,135.87431 A 69.967147,49.929225 60.143871 0 1 90.872965,100.25253 69.967147,49.929225 60.143871 0 1 99.158593,14.630753 69.967147,49.929225 60.143871 0 1 177.31233,50.252534 69.967147,49.929225 60.143871 0 1 169.0267,135.87431 Z M 233.90424,75.252543 A 99.811584,75 0 0 1 134.09266,150.25254 99.811584,75 0 0 1 34.281068,75.252538 99.811584,75 0 0 1 134.09266,0.25253832 99.811584,75 0 0 1 233.90424,75.252543 Z" />
    <rect
       y="0.25253808"
       x="22.591507"
       height="150.51273"
       width="11.185438"
       id="rect929"
       style="fill:#000000;fill-opacity:0.995951;fill-rule:evenodd;stroke:#000000;stroke-width:0.177868" />
    <rect
       style="fill:#000000;fill-opacity:0.995951;fill-rule:evenodd;stroke:#000000;stroke-width:0.177868"
       id="rect929-0"
       width="11.185438"
       height="150.51273"
       x="0.31532487"
       y="-6.9538856e-08" />
    <rect
       style="fill:#000000;fill-opacity:0.995951;fill-rule:evenodd;stroke:#000000;stroke-width:0.177868"
       id="rect929-8"
       width="11.185438"
       height="150.51273"
       x="256.60004"
       y="0.3788085" />
    <rect
       y="0.12627028"
       x="234.32385"
       height="150.51273"
       width="11.185438"
       id="rect929-0-5"
       style="fill:#000000;fill-opacity:0.995951;fill-rule:evenodd;stroke:#000000;stroke-width:0.177868" />
  </g>
</svg>
