<?xml version="1.0" encoding="UTF-8" standalone="no"?>
<svg
   xmlns:dc="http://purl.org/dc/elements/1.1/"
   xmlns:cc="http://creativecommons.org/ns#"
   xmlns:rdf="http://www.w3.org/1999/02/22-rdf-syntax-ns#"
   xmlns:svg="http://www.w3.org/2000/svg"
   xmlns="http://www.w3.org/2000/svg"
   xmlns:sodipodi="http://sodipodi.sourceforge.net/DTD/sodipodi-0.dtd"
   xmlns:inkscape="http://www.inkscape.org/namespaces/inkscape"
   sodipodi:docname="绘图2.svg"
   inkscape:version="1.0 (4035a4fb49, 2020-05-01)"
   id="svg8"
   version="1.1"
   viewBox="0 0 200 168"
   height="168"
   width="200">
  <defs
     id="defs2" />
  <sodipodi:namedview
     inkscape:window-maximized="1"
     inkscape:window-y="-8"
     inkscape:window-x="-8"
     inkscape:window-height="1377"
     inkscape:window-width="2560"
     units="px"
     showgrid="false"
     inkscape:document-rotation="0"
     inkscape:current-layer="layer1"
     inkscape:document-units="px"
     inkscape:cy="105.56785"
     inkscape:cx="73.254071"
     inkscape:zoom="2.8"
     inkscape:pageshadow="2"
     inkscape:pageopacity="0.0"
     borderopacity="1.0"
     bordercolor="#666666"
     pagecolor="#ffffff"
     id="base" />
  <metadata
     id="metadata5">
    <rdf:RDF>
      <cc:Work
         rdf:about="">
        <dc:format>image/svg+xml</dc:format>
        <dc:type
           rdf:resource="http://purl.org/dc/dcmitype/StillImage" />
        <dc:title></dc:title>
      </cc:Work>
    </rdf:RDF>
  </metadata>
  <g
     id="layer1"
     inkscape:label="图层 1">
    <path
       d="M 122.57227,0.18554688 A 78.05938,104.14294 63.383503 0 0 75.087891,9.6523438 78.05938,104.14294 63.383503 0 0 3.2636719,122.86133 78.05938,104.14294 63.383503 0 0 124.19922,158.61523 78.05938,104.14294 63.383503 0 0 196.02148,45.40625 78.05938,104.14294 63.383503 0 0 122.57227,0.18554688 Z M 140.30273,29.796875 A 44.878831,90.060482 66.901153 0 1 183.1543,50.578125 44.878831,90.060482 66.901153 0 1 113.73242,126.87109 44.878831,90.060482 66.901153 0 1 16.132812,117.68945 44.878831,90.060482 66.901153 0 1 85.552734,41.396484 44.878831,90.060482 66.901153 0 1 140.30273,29.796875 Z"
       style="fill:#000000;fill-opacity:1;fill-rule:evenodd;stroke:#000000;stroke-width:0.330079;stroke-opacity:1;image-rendering:auto"
       id="path2494" />
  </g>
</svg>
