<?xml version="1.0" encoding="UTF-8" standalone="no"?>
<svg
   xmlns:dc="http://purl.org/dc/elements/1.1/"
   xmlns:cc="http://creativecommons.org/ns#"
   xmlns:rdf="http://www.w3.org/1999/02/22-rdf-syntax-ns#"
   xmlns:svg="http://www.w3.org/2000/svg"
   xmlns="http://www.w3.org/2000/svg"
   xmlns:sodipodi="http://sodipodi.sourceforge.net/DTD/sodipodi-0.dtd"
   xmlns:inkscape="http://www.inkscape.org/namespaces/inkscape"
   sodipodi:docname="repeat-end.svg"
   inkscape:version="1.0 (4035a4f, 2020-05-01)"
   id="svg1003"
   version="1.1"
   viewBox="0 0 50 100"
   height="100"
   width="50">
  <defs
     id="defs997" />
  <sodipodi:namedview
     inkscape:window-maximized="1"
     inkscape:window-y="23"
     inkscape:window-x="0"
     inkscape:window-height="1035"
     inkscape:window-width="1920"
     showgrid="false"
     inkscape:document-rotation="0"
     inkscape:current-layer="layer1"
     inkscape:document-units="mm"
     inkscape:cy="49.454693"
     inkscape:cx="27.948235"
     inkscape:zoom="7.7384465"
     inkscape:pageshadow="2"
     inkscape:pageopacity="0.0"
     borderopacity="1.0"
     bordercolor="#666666"
     pagecolor="#ffffff"
     id="base" />
  <metadata
     id="metadata1000">
    <rdf:RDF>
      <cc:Work
         rdf:about="">
        <dc:format>image/svg+xml</dc:format>
        <dc:type
           rdf:resource="http://purl.org/dc/dcmitype/StillImage" />
        <dc:title></dc:title>
      </cc:Work>
    </rdf:RDF>
  </metadata>
  <g
     id="layer1"
     inkscape:groupmode="layer"
     inkscape:label="å›¾å±‚ 1">
    <g
       style="font-style:normal;font-weight:normal;font-size:142.528px;line-height:1.25;font-family:sans-serif;fill:#000000;fill-opacity:1;stroke:none;stroke-width:3.5632"
       id="text1007"
       transform="scale(0.95316526,1.049136)"
       aria-label="ð„‡">
      <path
         id="path1009"
         style="stroke-width:3.5632"
         d="M 52.323821,95.366589 38.613853,95.296995 38.75304,0.09274556 52.254228,0.16233931 Z m -20.321375,-0.06959 -6.820187,-0.139187 0.06959,-95.13465619 6.750593,0.1391875 z M 7.1574776,26.886339 q 2.9925314,0 4.9411564,2.018219 2.018219,2.018219 2.018219,5.01075 0,2.78375 -2.157407,4.871563 -2.0878121,2.087812 -4.9411559,2.087812 -2.8533437,0 -4.8715625,-2.018219 -2.01821871,-2.018218 -2.01821871,-4.941156 0,-3.062125 1.94862501,-5.01075 2.0182187,-2.018219 5.0803437,-2.018219 z m 0,28.39425 q 2.9925314,0 4.9411564,2.087813 2.018219,2.018219 2.018219,5.080344 0,2.992531 -2.018219,4.941156 -2.018219,1.948625 -5.0803439,1.948625 -2.9925312,0 -5.01075,-1.948625 -1.94862496,-1.948625 -1.94862496,-4.941156 0,-3.062125 2.01821876,-5.080344 2.0878125,-2.087813 5.0803437,-2.087813 z" />
    </g>
  </g>
</svg>
