<?xml version="1.0" encoding="UTF-8" standalone="no"?>
<svg
   xmlns:dc="http://purl.org/dc/elements/1.1/"
   xmlns:cc="http://creativecommons.org/ns#"
   xmlns:rdf="http://www.w3.org/1999/02/22-rdf-syntax-ns#"
   xmlns:svg="http://www.w3.org/2000/svg"
   xmlns="http://www.w3.org/2000/svg"
   xmlns:sodipodi="http://sodipodi.sourceforge.net/DTD/sodipodi-0.dtd"
   xmlns:inkscape="http://www.inkscape.org/namespaces/inkscape"
   sodipodi:docname="w ho le.svg"
   inkscape:version="1.0 (4035a4f, 2020-05-01)"
   id="svg67"
   version="1.1"
   viewBox="0 0 200 150"
   height="150"
   width="200">
  <defs
     id="defs61" />
  <sodipodi:namedview
     inkscape:window-maximized="1"
     inkscape:window-y="23"
     inkscape:window-x="0"
     inkscape:window-height="1035"
     inkscape:window-width="1920"
     showgrid="false"
     inkscape:document-rotation="0"
     inkscape:current-layer="layer1"
     inkscape:document-units="mm"
     inkscape:cy="122.96681"
     inkscape:cx="122.34908"
     inkscape:zoom="1.979899"
     inkscape:pageshadow="2"
     inkscape:pageopacity="0.0"
     borderopacity="1.0"
     bordercolor="#666666"
     pagecolor="#ffffff"
     id="base" />
  <metadata
     id="metadata64">
    <rdf:RDF>
      <cc:Work
         rdf:about="">
        <dc:format>image/svg+xml</dc:format>
        <dc:type
           rdf:resource="http://purl.org/dc/dcmitype/StillImage" />
        <dc:title></dc:title>
      </cc:Work>
    </rdf:RDF>
  </metadata>
  <g
     id="layer1"
     inkscape:groupmode="layer"
     inkscape:label="图层 1">
    <path
       d="m 184.9519,-49.102539 a 70,50 0 0 1 -70,49.99999994 70,50 0 0 1 -70.000003,-49.99999994 70,50 0 0 1 70.000003,-50 70,50 0 0 1 70,50 z M 164.95191,-135.70508 A 75,100 30 0 1 179.90381,-11.60254 75,100 30 0 1 64.951905,37.5 75,100 30 0 1 50,-86.60254 75,100 30 0 1 164.95191,-135.70508 Z"
       transform="rotate(60)"
       style="fill:#000000;fill-opacity:0.995951;fill-rule:evenodd;stroke:#000000;stroke-width:0.2"
       id="path71" />
  </g>
</svg>
